<?xml version="1.0" standalone="no"?>
<!DOCTYPE svg PUBLIC "-//W3C//DTD SVG 20010904//EN"
 "http://www.w3.org/TR/2001/REC-SVG-20010904/DTD/svg10.dtd">
<svg version="1.0" xmlns="http://www.w3.org/2000/svg"
 width="64.000000pt" height="64.000000pt" viewBox="0 0 64.000000 64.000000"
 preserveAspectRatio="xMidYMid meet">

<g transform="translate(0.000000,64.000000) scale(0.100000,-0.100000)"
fill="#000000" stroke="none">
<path d="M17 542 c-15 -16 -17 -47 -17 -224 0 -186 2 -206 18 -221 16 -15 52
-17 304 -17 263 0 286 1 301 18 15 16 17 47 17 224 0 186 -2 206 -18 221 -16
15 -52 17 -304 17 -263 0 -286 -1 -301 -18z m582 -39 c0 -10 -47 -60 -104
-110 l-103 -93 -72 0 -72 0 -104 96 c-57 53 -104 103 -104 110 0 12 49 14 280
14 260 0 280 -1 279 -17z m-484 -131 l57 -52 -58 -73 c-31 -39 -61 -76 -66
-82 -4 -5 -8 53 -8 129 0 76 4 136 9 134 4 -1 34 -27 66 -56z m483 -142 l-3
-70 -64 81 c-35 44 -62 81 -60 82 2 1 31 27 64 57 l60 55 3 -67 c2 -37 2 -99
0 -138z m-374 45 c28 -21 164 -20 195 1 12 9 26 12 30 8 4 -5 36 -44 70 -86
l62 -78 -261 0 -260 0 67 85 c38 47 70 85 73 85 3 -1 14 -7 24 -15z"/>
</g>
</svg>
