<?xml version="1.0" standalone="no"?>
<!DOCTYPE svg PUBLIC "-//W3C//DTD SVG 20010904//EN"
 "http://www.w3.org/TR/2001/REC-SVG-20010904/DTD/svg10.dtd">
<svg version="1.0" xmlns="http://www.w3.org/2000/svg"
 width="64.000000pt" height="64.000000pt" viewBox="0 0 64.000000 64.000000"
 preserveAspectRatio="xMidYMid meet">

<g transform="translate(0.000000,64.000000) scale(0.100000,-0.100000)"
fill="#000000" stroke="none">
<path d="M255 626 c-37 -16 -83 -68 -91 -102 -10 -41 2 -114 25 -145 12 -15
21 -31 21 -34 0 -3 -21 -5 -46 -5 -25 0 -54 -5 -66 -11 -32 -17 -48 -71 -48
-160 0 -92 17 -140 56 -158 39 -18 397 -15 433 4 43 22 53 60 49 175 -3 97 -4
103 -31 126 -22 18 -40 24 -78 24 -27 0 -49 2 -49 5 0 2 11 21 25 41 49 72 28
171 -47 227 -34 25 -113 32 -153 13z m132 -46 c40 -24 56 -54 56 -105 0 -69
-56 -125 -124 -125 -36 0 -89 31 -106 63 -18 35 -19 96 -3 127 30 55 119 76
177 40z m-157 -294 c12 -33 57 -66 90 -66 33 0 78 33 90 66 8 20 16 24 55 24
73 0 85 -20 85 -137 0 -140 11 -133 -228 -133 -243 0 -232 -6 -232 132 0 119
12 138 85 138 39 0 47 -4 55 -24z m150 16 c0 -5 -9 -17 -19 -26 -25 -23 -70
-17 -89 12 l-14 22 61 0 c33 0 61 -4 61 -8z"/>
</g>
</svg>
