<?xml version="1.0" standalone="no"?>
<!DOCTYPE svg PUBLIC "-//W3C//DTD SVG 20010904//EN"
 "http://www.w3.org/TR/2001/REC-SVG-20010904/DTD/svg10.dtd">
<svg version="1.0" xmlns="http://www.w3.org/2000/svg"
 width="64.000000pt" height="64.000000pt" viewBox="0 0 64.000000 64.000000"
 preserveAspectRatio="xMidYMid meet">

<g transform="translate(0.000000,64.000000) scale(0.100000,-0.100000)"
fill="#000000" stroke="none">
<path d="M255 626 c-65 -29 -105 -94 -105 -172 0 -39 -2 -44 -23 -44 -44 0
-47 -14 -47 -201 0 -148 3 -180 16 -193 23 -24 425 -24 448 0 13 13 16 45 16
193 0 187 -3 201 -47 201 -21 0 -23 5 -23 45 0 131 -123 221 -235 171z m126
-41 c43 -23 69 -71 69 -128 0 -41 -3 -48 -17 -45 -14 2 -19 15 -21 53 -4 69
-30 95 -92 95 -62 0 -88 -26 -92 -95 -2 -38 -7 -51 -20 -53 -15 -3 -18 4 -18
43 0 25 7 59 15 76 32 61 113 86 176 54z m-20 -76 c14 -14 19 -30 17 -57 l-3
-37 -55 0 -55 0 -3 37 c-4 42 24 78 58 78 11 0 29 -9 41 -21z m158 -143 c8 -9
11 -63 9 -167 l-3 -154 -205 0 -205 0 -3 154 c-2 104 1 158 9 167 17 20 381
20 398 0z"/>
<path d="M288 288 c-27 -21 -30 -53 -9 -80 11 -13 21 -40 23 -59 4 -47 31 -46
38 1 3 19 13 47 23 62 15 22 16 30 6 50 -21 39 -51 49 -81 26z m48 -39 c10
-17 -13 -36 -27 -22 -12 12 -4 33 11 33 5 0 12 -5 16 -11z"/>
</g>
</svg>
